<?xml version="1.0" encoding="utf-8"?><svg xmlns="http://www.w3.org/2000/svg" xmlns:xlink="http://www.w3.org/1999/xlink" width="1231" height="227" preserveAspectRatio="xMidYMid" viewBox="0 0 1231 227" style="z-index:1;margin-right:-2px;display:block;background-repeat-y:initial;background-repeat-x:initial;background-color:rgb(241, 242, 243);animation-play-state:paused" ><g transform="translate(615.5,113.5) scale(1,1) translate(-615.5,-113.5)" style="transform:matrix(1, 0, 0, 1, 0, 0);animation-play-state:paused" ><linearGradient id="lg-0.6727132930129958" x1="0" x2="1" y1="0" y2="0" style="animation-play-state:paused" ><stop stop-color="#420457" offset="0" style="animation-play-state:paused" ></stop>

  
<stop stop-color="#be3aa7" offset="1" style="animation-play-state:paused" ></stop></linearGradient>
<path d="M 0 0 L 0 214.437 Q 76.9375 220.217 153.875 176.336 T 307.75 142.737 T 461.625 114.229 T 615.5 80.4885 T 769.375 39.4742 T 923.25 34.1392 T 1077.13 -8.69378 T 1231 -23.7869 L 1231 0 Z" fill="url(#lg-0.6727132930129958)" opacity="0.4" style="opacity:0.4;animation-play-state:paused" ></path>
<path d="M 0 0 L 0 207.128 Q 76.9375 227.925 153.875 187.148 T 307.75 163.324 T 461.625 128.093 T 615.5 100.124 T 769.375 73.5463 T 923.25 43.4875 T 1077.13 25.8789 T 1231 2.11477 L 1231 0 Z" fill="url(#lg-0.6727132930129958)" opacity="0.4" style="opacity:0.4;animation-play-state:paused" ></path>
<path d="M 0 0 L 0 210.505 Q 76.9375 207.859 153.875 177.345 T 307.75 133.716 T 461.625 111.826 T 615.5 69.0314 T 769.375 47.1378 T 923.25 25.7227 T 1077.13 -6.57596 T 1231 -42.0174 L 1231 0 Z" fill="url(#lg-0.6727132930129958)" opacity="0.4" style="opacity:0.4;animation-play-state:paused" ></path>
<path d="M 0 0 L 0 210.19 Q 76.9375 191.102 153.875 163.569 T 307.75 153.308 T 461.625 110.834 T 615.5 85.8784 T 769.375 54.9336 T 923.25 4.22874 T 1077.13 -13.8334 T 1231 -48.9041 L 1231 0 Z" fill="url(#lg-0.6727132930129958)" opacity="0.4" style="opacity:0.4;animation-play-state:paused" ></path></g></svg>