<?xml version="1.0" encoding="utf-8"?><svg xmlns="http://www.w3.org/2000/svg" xmlns:xlink="http://www.w3.org/1999/xlink" width="1274" height="132" preserveAspectRatio="xMidYMid" viewBox="0 0 1274 132" style="z-index:1;margin-right:-2px;display:block;background-repeat-y:initial;background-repeat-x:initial;background-color:white;animation-play-state:paused" ><g transform="translate(637,66) scale(-1,1) translate(-637,-66)" style="transform:matrix(-1, 0, 0, 1, 1274, 0);animation-play-state:paused" ><linearGradient id="lg-0.007477680084502003" x1="0" x2="1" y1="0" y2="0" style="animation-play-state:paused" ><stop stop-color="#420457" offset="0" style="animation-play-state:paused" ></stop>

  
<stop stop-color="#be3aa7" offset="1" style="animation-play-state:paused" ></stop></linearGradient>
<path d="M 0 0 L 0 116.655 Q 79.625 157.371 159.25 106.561 T 318.5 87.1461 T 477.75 64.4189 T 637 49.8161 T 796.25 35.6863 T 955.5 22.694 T 1114.75 12.2215 T 1274 -15.7832 L 1274 0 Z" fill="url(#lg-0.007477680084502003)" opacity="0.4" style="opacity:0.4;animation-play-state:paused" ></path>
<path d="M 0 0 L 0 112.545 Q 79.625 129.597 159.25 96.7002 T 318.5 81.5549 T 477.75 69.7914 T 637 48.2228 T 796.25 38.4081 T 955.5 17.1948 T 1114.75 3.96203 T 1274 -18.2747 L 1274 0 Z" fill="url(#lg-0.007477680084502003)" opacity="0.4" style="opacity:0.4;animation-play-state:paused" ></path>
<path d="M 0 0 L 0 112.105 Q 79.625 154.593 159.25 104.487 T 318.5 84.4029 T 477.75 75.0263 T 637 53.6868 T 796.25 43.7359 T 955.5 26.2168 T 1114.75 12.3113 T 1274 -16.0367 L 1274 0 Z" fill="url(#lg-0.007477680084502003)" opacity="0.4" style="opacity:0.4;animation-play-state:paused" ></path>
<path d="M 0 0 L 0 112.729 Q 79.625 127.846 159.25 93.6544 T 318.5 80.0197 T 477.75 56.8309 T 637 46.8386 T 796.25 36.6339 T 955.5 16.1887 T 1114.75 1.09231 T 1274 -30.4538 L 1274 0 Z" fill="url(#lg-0.007477680084502003)" opacity="0.4" style="opacity:0.4;animation-play-state:paused" ></path>
<path d="M 0 0 L 0 125.406 Q 79.625 128.8 159.25 105.61 T 318.5 84.9827 T 477.75 71.3587 T 637 51.3021 T 796.25 35.8097 T 955.5 14.5297 T 1114.75 6.88971 T 1274 -16.8308 L 1274 0 Z" fill="url(#lg-0.007477680084502003)" opacity="0.4" style="opacity:0.4;animation-play-state:paused" ></path></g></svg>