<?xml version="1.0" encoding="utf-8"?><svg xmlns="http://www.w3.org/2000/svg" xmlns:xlink="http://www.w3.org/1999/xlink" width="1274" height="180" preserveAspectRatio="xMidYMid" viewBox="0 0 1274 180" style="z-index:1;margin-right:-2px;display:block;background-repeat-y:initial;background-repeat-x:initial;background-color:white;animation-play-state:paused" ><g transform="translate(637,90) scale(-1,1) translate(-637,-90)" style="transform:matrix(-1, 0, 0, 1, 1274, 0);animation-play-state:paused" ><linearGradient id="lg-0.11131867605376189" x1="0" x2="1" y1="0" y2="0" style="animation-play-state:paused" ><stop stop-color="#420457" offset="0" style="animation-play-state:paused" ></stop>

  
<stop stop-color="#be3aa7" offset="1" style="animation-play-state:paused" ></stop></linearGradient>
<path d="M 0 0 L 0 158.187 Q 79.625 191.292 159.25 147.66 T 318.5 124.492 T 477.75 98.3339 T 637 88.9501 T 796.25 65.9186 T 955.5 51.4607 T 1114.75 32.5191 T 1274 17.1416 L 1274 0 Z" fill="url(#lg-0.11131867605376189)" opacity="0.4" style="opacity:0.4;animation-play-state:paused" ></path>
<path d="M 0 0 L 0 162.78 Q 79.625 176.026 159.25 139.617 T 318.5 127.805 T 477.75 115.303 T 637 89.8189 T 796.25 79.3868 T 955.5 73.873 T 1114.75 38.1408 T 1274 30.4936 L 1274 0 Z" fill="url(#lg-0.11131867605376189)" opacity="0.4" style="opacity:0.4;animation-play-state:paused" ></path>
<path d="M 0 0 L 0 161.697 Q 79.625 176.3 159.25 139.189 T 318.5 133.599 T 477.75 106.7 T 637 88.8254 T 796.25 65.8312 T 955.5 66.3444 T 1114.75 36.8306 T 1274 28.1786 L 1274 0 Z" fill="url(#lg-0.11131867605376189)" opacity="0.4" style="opacity:0.4;animation-play-state:paused" ></path>
<path d="M 0 0 L 0 164.282 Q 79.625 177.747 159.25 151.225 T 318.5 137.908 T 477.75 106.022 T 637 89.2367 T 796.25 83.5068 T 955.5 57.9614 T 1114.75 43.1642 T 1274 34.9122 L 1274 0 Z" fill="url(#lg-0.11131867605376189)" opacity="0.4" style="opacity:0.4;animation-play-state:paused" ></path>
<path d="M 0 0 L 0 160.456 Q 79.625 182.741 159.25 147.669 T 318.5 136.974 T 477.75 116.892 T 637 99.0195 T 796.25 69.8683 T 955.5 59.8856 T 1114.75 52.763 T 1274 30.9166 L 1274 0 Z" fill="url(#lg-0.11131867605376189)" opacity="0.4" style="opacity:0.4;animation-play-state:paused" ></path></g></svg>