<?xml version="1.0" encoding="utf-8"?><svg xmlns="http://www.w3.org/2000/svg" xmlns:xlink="http://www.w3.org/1999/xlink" width="1274" height="180" preserveAspectRatio="xMidYMid" viewBox="0 0 1274 180" style="z-index:1;margin-right:-2px;display:block;background-repeat-y:initial;background-repeat-x:initial;animation-play-state:paused" ><g transform="translate(637,90) scale(-1,-1) translate(-637,-90)" style="transform:matrix(-1, 0, 0, -1, 1274, 180);animation-play-state:paused" ><linearGradient id="lg-0.44161643153482766" x1="0" x2="1" y1="0" y2="0" style="animation-play-state:paused" ><stop stop-color="#420457" offset="0" style="animation-play-state:paused" ></stop>

  
<stop stop-color="#8a21ff" offset="1" style="animation-play-state:paused" ></stop></linearGradient>
<path d="M 0 0 L 0 138.804 Q 79.625 132.197 159.25 108.923 T 318.5 113.3 T 477.75 76.268 T 637 94.2322 T 796.25 78.3775 T 955.5 43.5189 T 1114.75 8.95016 T 1274 32.3255 L 1274 0 Z" fill="url(#lg-0.44161643153482766)" opacity="0.4" style="opacity:0.4;animation-play-state:paused" ></path>
<path d="M 0 0 L 0 159.042 Q 79.625 153.254 159.25 124.301 T 318.5 118.305 T 477.75 84.6247 T 637 66.9394 T 796.25 67.1913 T 955.5 35.7044 T 1114.75 18.2928 T 1274 21.6257 L 1274 0 Z" fill="url(#lg-0.44161643153482766)" opacity="0.4" style="opacity:0.4;animation-play-state:paused" ></path>
<path d="M 0 0 L 0 169.39 Q 79.625 137.338 159.25 112.559 T 318.5 98.5417 T 477.75 83.9694 T 637 72.5569 T 796.25 47.853 T 955.5 36.3332 T 1114.75 14.5302 T 1274 6.68453 L 1274 0 Z" fill="url(#lg-0.44161643153482766)" opacity="0.4" style="opacity:0.4;animation-play-state:paused" ></path>
<path d="M 0 0 L 0 147.27 Q 79.625 142.581 159.25 119.712 T 318.5 119.379 T 477.75 84.8168 T 637 92.1842 T 796.25 80.095 T 955.5 49.3445 T 1114.75 31.117 T 1274 12.2476 L 1274 0 Z" fill="url(#lg-0.44161643153482766)" opacity="0.4" style="opacity:0.4;animation-play-state:paused" ></path>
<path d="M 0 0 L 0 136.705 Q 79.625 139.047 159.25 121.863 T 318.5 117.904 T 477.75 86.0905 T 637 58.156 T 796.25 56.2834 T 955.5 40.263 T 1114.75 13.0544 T 1274 3.55549 L 1274 0 Z" fill="url(#lg-0.44161643153482766)" opacity="0.4" style="opacity:0.4;animation-play-state:paused" ></path></g></svg>