<?xml version="1.0" encoding="utf-8"?><svg xmlns="http://www.w3.org/2000/svg" xmlns:xlink="http://www.w3.org/1999/xlink" width="1274" height="189" preserveAspectRatio="xMidYMid" viewBox="0 0 1274 189" style="z-index:1;margin-right:-2px;display:block;background-repeat-y:initial;background-repeat-x:initial;animation-play-state:paused" ><g transform="translate(637,94.5) scale(-1,1) translate(-637,-94.5)" style="transform:matrix(-1, 0, 0, 1, 1274, 0);animation-play-state:paused" ><linearGradient id="lg-0.8890211738941145" x1="0" x2="1" y1="0" y2="0" style="animation-play-state:paused" ><stop stop-color="#420457" offset="0" style="animation-play-state:paused" ></stop>

  
<stop stop-color="#8a21ff" offset="1" style="animation-play-state:paused" ></stop></linearGradient>
<path d="M 0 0 L 0 120.065 Q 91 188.531 182 152.018 T 364 105.639 T 546 71.6921 T 728 83.3609 T 910 51.9448 T 1092 -10.9093 T 1274 -18.1657 L 1274 0 Z" fill="url(#lg-0.8890211738941145)" opacity="0.4" style="opacity:0.4;animation-play-state:paused" ></path>
<path d="M 0 0 L 0 120.36 Q 91 182.457 182 157.431 T 364 117.28 T 546 75.6345 T 728 53.5367 T 910 67.9041 T 1092 35.6044 T 1274 21.7619 L 1274 0 Z" fill="url(#lg-0.8890211738941145)" opacity="0.4" style="opacity:0.4;animation-play-state:paused" ></path>
<path d="M 0 0 L 0 138.412 Q 91 162.168 182 136.67 T 364 124.474 T 546 94.595 T 728 50.4591 T 910 42.9257 T 1092 -10.5487 T 1274 -4.66388 L 1274 0 Z" fill="url(#lg-0.8890211738941145)" opacity="0.4" style="opacity:0.4;animation-play-state:paused" ></path>
<path d="M 0 0 L 0 174.29 Q 91 144.443 182 129.858 T 364 96.5115 T 546 88.3521 T 728 41.8425 T 910 17.0969 T 1092 40.6569 T 1274 -3.65001 L 1274 0 Z" fill="url(#lg-0.8890211738941145)" opacity="0.4" style="opacity:0.4;animation-play-state:paused" ></path></g></svg>